<?xml version="1.0" standalone="no"?>
<!DOCTYPE svg PUBLIC "-//W3C//DTD SVG 20010904//EN"
 "http://www.w3.org/TR/2001/REC-SVG-20010904/DTD/svg10.dtd">
<svg version="1.0" xmlns="http://www.w3.org/2000/svg"
 width="205.000000pt" height="205.000000pt" viewBox="0 0 205.000000 205.000000"
 preserveAspectRatio="xMidYMid meet">
<metadata>
Created by potrace 1.11, written by Peter Selinger 2001-2013
</metadata>
<g transform="translate(0.000000,205.000000) scale(0.100000,-0.100000)"
fill="#000000" stroke="none">
<path d="M664 2021 c-48 -22 -101 -82 -114 -131 -23 -81 -4 -149 58 -213 50
-51 108 -67 249 -67 l113 0 0 123 c0 142 -8 178 -52 231 -40 48 -98 76 -163
76 -27 0 -68 -9 -91 -19z"/>
<path d="M1194 2021 c-49 -22 -97 -78 -113 -130 -6 -21 -11 -101 -11 -178 l0
-140 -82 -5 c-58 -3 -103 -13 -149 -31 l-66 -27 -299 0 c-335 0 -349 -3 -411
-73 -41 -47 -57 -97 -50 -165 7 -69 42 -122 104 -159 46 -27 53 -28 210 -31
l163 -4 0 -68 c0 -44 8 -90 22 -132 20 -58 22 -87 27 -389 l6 -326 28 -41 c15
-23 46 -54 69 -69 36 -24 52 -28 113 -28 61 0 77 4 113 28 23 15 54 46 69 69
27 40 28 46 31 204 l4 162 91 4 c69 3 108 11 158 31 l66 27 278 0 c179 0 291
4 316 11 157 48 201 262 75 366 -54 44 -97 53 -248 53 l-136 0 -4 88 c-4 68
-11 101 -33 152 l-29 65 -6 305 c-5 332 -6 335 -67 391 -65 61 -158 77 -239
40z m-96 -628 c3 -10 -16 -13 -72 -13 -70 0 -87 6 -69 24 12 12 136 2 141 -11z
m190 -84 c2 -23 -2 -40 -12 -49 -14 -11 -16 -50 -16 -277 l0 -264 -25 -24
c-24 -25 -26 -25 -203 -25 -166 0 -181 2 -206 21 l-26 20 0 270 c0 176 -4 269
-10 269 -17 0 -33 47 -26 74 l6 26 258 -2 257 -3 3 -36z"/>
<path d="M857 1193 c-4 -3 -7 -104 -7 -224 0 -192 2 -218 16 -223 9 -4 25 -4
35 -1 18 6 19 21 19 225 0 189 -2 219 -16 224 -20 8 -39 8 -47 -1z"/>
<path d="M1004 1187 c-2 -7 -3 -109 -2 -227 3 -203 4 -215 22 -218 40 -8 46
21 46 226 0 114 -4 201 -10 213 -12 21 -48 26 -56 6z"/>
<path d="M1143 1194 c-10 -4 -13 -58 -13 -219 0 -227 4 -245 50 -230 20 6 20
12 18 228 -3 214 -4 222 -23 224 -11 1 -26 -1 -32 -3z"/>
<path d="M1740 1499 c-44 -18 -90 -59 -112 -102 -19 -36 -23 -61 -26 -180 l-4
-139 139 4 c125 3 142 5 183 28 119 67 147 225 57 327 -18 20 -50 44 -72 54
-43 20 -125 24 -165 8z"/>
<path d="M152 969 c-49 -14 -118 -88 -132 -141 -26 -95 10 -191 92 -245 36
-24 52 -28 113 -28 61 0 77 4 113 28 23 15 54 46 69 69 27 40 28 48 31 185 l4
143 -129 -1 c-70 0 -143 -5 -161 -10z"/>
<path d="M1070 333 c0 -65 4 -133 10 -152 27 -97 126 -168 219 -159 171 17
260 207 158 340 -54 70 -91 82 -249 86 l-138 4 0 -119z"/>
</g>
</svg>
